<svg width="18" height="18" viewBox="0 0 18 18" fill="none" xmlns="http://www.w3.org/2000/svg">
<path d="M17.125 16.5H15.25V1.5H15.875C16.0408 1.5 16.1997 1.43415 16.3169 1.31694C16.4342 1.19973 16.5 1.04076 16.5 0.875C16.5 0.70924 16.4342 0.550268 16.3169 0.433058C16.1997 0.315848 16.0408 0.25 15.875 0.25H2.125C1.95924 0.25 1.80027 0.315848 1.68306 0.433058C1.56585 0.550268 1.5 0.70924 1.5 0.875C1.5 1.04076 1.56585 1.19973 1.68306 1.31694C1.80027 1.43415 1.95924 1.5 2.125 1.5H2.75V16.5H0.875C0.70924 16.5 0.550268 16.5658 0.433058 16.6831C0.315848 16.8003 0.25 16.9592 0.25 17.125C0.25 17.2908 0.315848 17.4497 0.433058 17.5669C0.550268 17.6842 0.70924 17.75 0.875 17.75H17.125C17.2908 17.75 17.4497 17.6842 17.5669 17.5669C17.6842 17.4497 17.75 17.2908 17.75 17.125C17.75 16.9592 17.6842 16.8003 17.5669 16.6831C17.4497 16.5658 17.2908 16.5 17.125 16.5ZM5.875 3.375H7.75C7.91576 3.375 8.07473 3.44085 8.19194 3.55806C8.30915 3.67527 8.375 3.83424 8.375 4C8.375 4.16576 8.30915 4.32473 8.19194 4.44194C8.07473 4.55915 7.91576 4.625 7.75 4.625H5.875C5.70924 4.625 5.55027 4.55915 5.43306 4.44194C5.31585 4.32473 5.25 4.16576 5.25 4C5.25 3.83424 5.31585 3.67527 5.43306 3.55806C5.55027 3.44085 5.70924 3.375 5.875 3.375ZM5.875 6.5H7.75C7.91576 6.5 8.07473 6.56585 8.19194 6.68306C8.30915 6.80027 8.375 6.95924 8.375 7.125C8.375 7.29076 8.30915 7.44973 8.19194 7.56694C8.07473 7.68415 7.91576 7.75 7.75 7.75H5.875C5.70924 7.75 5.55027 7.68415 5.43306 7.56694C5.31585 7.44973 5.25 7.29076 5.25 7.125C5.25 6.95924 5.31585 6.80027 5.43306 6.68306C5.55027 6.56585 5.70924 6.5 5.875 6.5ZM5.25 10.25C5.25 10.0842 5.31585 9.92527 5.43306 9.80806C5.55027 9.69085 5.70924 9.625 5.875 9.625H7.75C7.91576 9.625 8.07473 9.69085 8.19194 9.80806C8.30915 9.92527 8.375 10.0842 8.375 10.25C8.375 10.4158 8.30915 10.5747 8.19194 10.6919C8.07473 10.8092 7.91576 10.875 7.75 10.875H5.875C5.70924 10.875 5.55027 10.8092 5.43306 10.6919C5.31585 10.5747 5.25 10.4158 5.25 10.25ZM10.875 16.5H7.125V13.375H10.875V16.5ZM12.125 10.875H10.25C10.0842 10.875 9.92527 10.8092 9.80806 10.6919C9.69085 10.5747 9.625 10.4158 9.625 10.25C9.625 10.0842 9.69085 9.92527 9.80806 9.80806C9.92527 9.69085 10.0842 9.625 10.25 9.625H12.125C12.2908 9.625 12.4497 9.69085 12.5669 9.80806C12.6842 9.92527 12.75 10.0842 12.75 10.25C12.75 10.4158 12.6842 10.5747 12.5669 10.6919C12.4497 10.8092 12.2908 10.875 12.125 10.875ZM12.125 7.75H10.25C10.0842 7.75 9.92527 7.68415 9.80806 7.56694C9.69085 7.44973 9.625 7.29076 9.625 7.125C9.625 6.95924 9.69085 6.80027 9.80806 6.68306C9.92527 6.56585 10.0842 6.5 10.25 6.5H12.125C12.2908 6.5 12.4497 6.56585 12.5669 6.68306C12.6842 6.80027 12.75 6.95924 12.75 7.125C12.75 7.29076 12.6842 7.44973 12.5669 7.56694C12.4497 7.68415 12.2908 7.75 12.125 7.75ZM12.125 4.625H10.25C10.0842 4.625 9.92527 4.55915 9.80806 4.44194C9.69085 4.32473 9.625 4.16576 9.625 4C9.625 3.83424 9.69085 3.67527 9.80806 3.55806C9.92527 3.44085 10.0842 3.375 10.25 3.375H12.125C12.2908 3.375 12.4497 3.44085 12.5669 3.55806C12.6842 3.67527 12.75 3.83424 12.75 4C12.75 4.16576 12.6842 4.32473 12.5669 4.44194C12.4497 4.55915 12.2908 4.625 12.125 4.625Z" fill="white" fill-opacity="0.5"/>
</svg>
