<svg aria-hidden="true" style="position: absolute; width: 0; height: 0; overflow: hidden;" version="1.1"
     xmlns="http://www.w3.org/2000/svg" xmlns:xlink="http://www.w3.org/1999/xlink">
    <defs>
        <symbol id="icon-angle-right" viewBox="0 0 16 32">
            <path d="M14.019 17.063l-8.5 8.5c-0.588 0.587-1.538 0.587-2.119 0l-1.413-1.413c-0.587-0.587-0.587-1.538 0-2.119l6.025-6.025-6.025-6.025c-0.587-0.588-0.587-1.537 0-2.119l1.406-1.425c0.587-0.588 1.537-0.588 2.119 0l8.5 8.5c0.594 0.588 0.594 1.538 0.006 2.125z"></path>
        </symbol>
        <symbol id="icon-arrow-right-circle" viewBox="0 0 30 32">
            <path stroke-linejoin="round" stroke-linecap="round" stroke-miterlimit="4" stroke-width="1.5238"
                  d="M15.238 28.698c7.013 0 12.698-5.685 12.698-12.698s-5.685-12.698-12.698-12.698-12.698 5.685-12.698 12.698c0 7.013 5.685 12.698 12.698 12.698z"></path>
            <path stroke-linejoin="round" stroke-linecap="round" stroke-miterlimit="4" stroke-width="1.5238"
                  d="M15.238 21.079l5.079-5.079-5.079-5.079"></path>
            <path stroke-linejoin="round" stroke-linecap="round" stroke-miterlimit="4" stroke-width="1.5238"
                  d="M10.158 16h10.159"></path>
        </symbol>
        <symbol id="icon-cart" viewBox="0 0 35 32">
            <path d="M31.533 19.272c-0.178 0.651-0.77 1.066-1.421 1.066h-17.349l0.414 1.895h15.868c0.888 0 1.599 0.888 1.362 1.776l-0.296 1.421c1.125 0.533 1.895 1.658 1.895 2.96 0 1.836-1.54 3.316-3.316 3.316-1.836 0-3.316-1.48-3.316-3.316 0-0.888 0.355-1.717 0.947-2.368h-12.375c0.592 0.651 1.007 1.48 1.007 2.368 0 1.836-1.54 3.316-3.316 3.316-1.836 0-3.316-1.48-3.316-3.316 0-1.184 0.651-2.25 1.658-2.842l-4.204-20.368h-4.086c-0.829 0-1.421-0.592-1.421-1.421v-0.947c0-0.77 0.592-1.421 1.421-1.421h6.039c0.651 0 1.243 0.533 1.421 1.184l0.533 2.605h23.21c0.948 0 1.599 0.888 1.421 1.776l-2.783 12.316z"></path>
        </symbol>
        <symbol id="icon-company" viewBox="0 0 32 32">
            <path d="M30.444 29.333h-3.333v-26.667h1.111c0.295 0 0.577-0.117 0.786-0.325s0.326-0.491 0.326-0.786-0.117-0.577-0.326-0.786c-0.208-0.208-0.491-0.325-0.786-0.325h-24.444c-0.295 0-0.577 0.117-0.786 0.325s-0.325 0.491-0.325 0.786c0 0.295 0.117 0.577 0.325 0.786s0.491 0.325 0.786 0.325h1.111v26.667h-3.333c-0.295 0-0.577 0.117-0.786 0.326s-0.325 0.491-0.325 0.786 0.117 0.577 0.325 0.786c0.208 0.209 0.491 0.326 0.786 0.326h28.889c0.295 0 0.577-0.117 0.786-0.326s0.326-0.491 0.326-0.786-0.117-0.577-0.326-0.786c-0.208-0.209-0.491-0.326-0.786-0.326zM10.444 6h3.333c0.295 0 0.577 0.117 0.786 0.325s0.325 0.491 0.325 0.786c0 0.295-0.117 0.577-0.325 0.786s-0.491 0.325-0.786 0.325h-3.333c-0.295 0-0.577-0.117-0.786-0.325s-0.325-0.491-0.325-0.786c0-0.295 0.117-0.577 0.325-0.786s0.491-0.325 0.786-0.325zM10.444 11.556h3.333c0.295 0 0.577 0.117 0.786 0.325s0.325 0.491 0.325 0.786c0 0.295-0.117 0.577-0.325 0.786s-0.491 0.325-0.786 0.325h-3.333c-0.295 0-0.577-0.117-0.786-0.325s-0.325-0.491-0.325-0.786c0-0.295 0.117-0.577 0.325-0.786s0.491-0.325 0.786-0.325zM9.333 18.222c0-0.295 0.117-0.577 0.325-0.786s0.491-0.325 0.786-0.325h3.333c0.295 0 0.577 0.117 0.786 0.325s0.325 0.491 0.325 0.786c0 0.295-0.117 0.577-0.325 0.786s-0.491 0.326-0.786 0.326h-3.333c-0.295 0-0.577-0.117-0.786-0.326s-0.325-0.491-0.325-0.786zM19.333 29.333h-6.667v-5.556h6.667v5.556zM21.556 19.333h-3.333c-0.295 0-0.577-0.117-0.786-0.326s-0.325-0.491-0.325-0.786 0.117-0.577 0.325-0.786c0.208-0.208 0.491-0.325 0.786-0.325h3.333c0.295 0 0.577 0.117 0.786 0.325s0.326 0.491 0.326 0.786-0.117 0.577-0.326 0.786c-0.208 0.209-0.491 0.326-0.786 0.326zM21.556 13.778h-3.333c-0.295 0-0.577-0.117-0.786-0.325s-0.325-0.491-0.325-0.786c0-0.295 0.117-0.577 0.325-0.786s0.491-0.325 0.786-0.325h3.333c0.295 0 0.577 0.117 0.786 0.325s0.326 0.491 0.326 0.786-0.117 0.577-0.326 0.786c-0.208 0.208-0.491 0.325-0.786 0.325zM21.556 8.222h-3.333c-0.295 0-0.577-0.117-0.786-0.325s-0.325-0.491-0.325-0.786c0-0.295 0.117-0.577 0.325-0.786s0.491-0.325 0.786-0.325h3.333c0.295 0 0.577 0.117 0.786 0.325s0.326 0.491 0.326 0.786-0.117 0.577-0.326 0.786c-0.208 0.208-0.491 0.325-0.786 0.325z"></path>
        </symbol>
        <symbol id="icon-download" viewBox="0 0 32 32">
            <path stroke-linejoin="round" stroke-linecap="round" stroke-miterlimit="4" stroke-width="2.6667"
                  d="M28 20v5.333c0 0.707-0.281 1.385-0.781 1.886s-1.178 0.781-1.886 0.781h-18.667c-0.707 0-1.386-0.281-1.886-0.781s-0.781-1.178-0.781-1.886v-5.333"></path>
            <path stroke-linejoin="round" stroke-linecap="round" stroke-miterlimit="4" stroke-width="2.6667"
                  d="M9.333 13.333l6.667 6.667 6.667-6.667"></path>
            <path stroke-linejoin="round" stroke-linecap="round" stroke-miterlimit="4" stroke-width="2.6667"
                  d="M16 20v-16"></path>
        </symbol>
        <symbol id="icon-email2" viewBox="0 0 40 32">
            <path d="M36 0h-32c-2.2 0-3.98 1.8-3.98 4l-0.020 24c0 2.2 1.8 4 4 4h32c2.2 0 4-1.8 4-4v-24c0-2.2-1.8-4-4-4zM36 8l-16 10-16-10v-4l16 10 16-10v4z"></path>
        </symbol>
        <symbol id="icon-facebook" viewBox="0 0 20 32">
            <path d="M17.444 18l0.887-5.794h-5.556v-3.756c0-1.588 0.775-3.131 3.263-3.131h2.525v-4.925s-2.288-0.394-4.475-0.394c-4.575 0-7.569 2.775-7.569 7.794v4.412h-5.088v5.794h5.088v14h6.262v-14z"></path>
        </symbol>
        <symbol id="icon-instagram" viewBox="0 0 28 32">
            <path d="M14.006 8.813c-3.975 0-7.181 3.206-7.181 7.181s3.206 7.181 7.181 7.181 7.181-3.206 7.181-7.181-3.206-7.181-7.181-7.181zM14.006 20.663c-2.569 0-4.669-2.094-4.669-4.669s2.094-4.669 4.669-4.669 4.669 2.094 4.669 4.669-2.1 4.669-4.669 4.669zM23.156 8.519c0 0.931-0.75 1.675-1.675 1.675-0.931 0-1.675-0.75-1.675-1.675s0.75-1.675 1.675-1.675 1.675 0.75 1.675 1.675zM27.913 10.219c-0.106-2.244-0.619-4.231-2.262-5.869-1.637-1.638-3.625-2.15-5.869-2.263-2.313-0.131-9.244-0.131-11.556 0-2.237 0.106-4.225 0.619-5.869 2.256s-2.15 3.625-2.263 5.869c-0.131 2.313-0.131 9.244 0 11.556 0.106 2.244 0.619 4.231 2.263 5.869s3.625 2.15 5.869 2.262c2.313 0.131 9.244 0.131 11.556 0 2.244-0.106 4.231-0.619 5.869-2.262 1.637-1.637 2.15-3.625 2.262-5.869 0.131-2.313 0.131-9.238 0-11.55zM24.925 24.25c-0.488 1.225-1.431 2.169-2.663 2.663-1.844 0.731-6.219 0.563-8.256 0.563s-6.419 0.163-8.256-0.563c-1.225-0.488-2.169-1.431-2.663-2.663-0.731-1.844-0.563-6.219-0.563-8.256s-0.163-6.419 0.563-8.256c0.487-1.225 1.431-2.169 2.663-2.662 1.844-0.731 6.219-0.563 8.256-0.563s6.419-0.162 8.256 0.563c1.225 0.487 2.169 1.431 2.663 2.662 0.731 1.844 0.563 6.219 0.563 8.256s0.169 6.419-0.563 8.256z"></path>
        </symbol>
        <symbol id="icon-linkedin" viewBox="0 0 28 32">
            <path d="M6.269 28h-5.806v-18.694h5.806zM3.362 6.756c-1.856 0-3.362-1.537-3.362-3.394s1.505-3.362 3.362-3.362 3.362 1.505 3.362 3.362v0c0 1.856-1.506 3.394-3.362 3.394zM27.994 28h-5.794v-9.1c0-2.169-0.044-4.95-3.019-4.95-3.019 0-3.481 2.356-3.481 4.794v9.256h-5.8v-18.694h5.569v2.55h0.081c0.775-1.469 2.669-3.019 5.494-3.019 5.875 0 6.956 3.869 6.956 8.894v10.269z"></path>
        </symbol>
        <symbol id="icon-mail" viewBox="0 0 44 32">
            <path d="M5.492 31.795c-1.039 0-1.907-0.348-2.602-1.042s-1.043-1.563-1.045-2.604v-24.297c0-1.039 0.348-1.907 1.045-2.602s1.563-1.043 2.599-1.045h33.327c1.038 0 1.904 0.348 2.599 1.045s1.043 1.564 1.045 2.602v24.299c0 1.038-0.348 1.905-1.045 2.602s-1.563 1.044-2.599 1.042h-33.325zM22.154 16.262l-18.051-11.803v23.692c0 0.405 0.13 0.737 0.39 0.997s0.593 0.39 1 0.39h33.325c0.405 0 0.737-0.13 0.997-0.39s0.39-0.593 0.39-1v-23.692l-18.051 11.806zM22.154 13.744l17.356-11.282h-34.713l17.356 11.282zM4.103 4.459v-1.997 25.689c0 0.405 0.13 0.737 0.39 0.997s0.593 0.39 1 0.39h-1.39v-25.080z"></path>
        </symbol>
        <symbol id="icon-mail-alt" viewBox="0 0 32 32">
            <path d="M31.394 11.925c0.244-0.194 0.606-0.012 0.606 0.294v12.781c0 1.656-1.344 3-3 3h-26c-1.656 0-3-1.344-3-3v-12.775c0-0.313 0.356-0.488 0.606-0.294 1.4 1.088 3.256 2.469 9.631 7.1 1.319 0.962 3.544 2.988 5.763 2.975 2.231 0.019 4.5-2.050 5.769-2.975 6.375-4.631 8.225-6.019 9.625-7.106zM16 20c1.45 0.025 3.538-1.825 4.587-2.587 8.294-6.019 8.925-6.544 10.837-8.044 0.363-0.281 0.575-0.719 0.575-1.181v-1.188c0-1.656-1.344-3-3-3h-26c-1.656 0-3 1.344-3 3v1.188c0 0.463 0.212 0.894 0.575 1.181 1.912 1.494 2.544 2.025 10.838 8.044 1.050 0.762 3.138 2.613 4.588 2.587z"></path>
        </symbol>
        <symbol id="icon-map" viewBox="0 0 24 32">
            <path d="M10.769 31.356c-9.081-13.169-10.769-14.519-10.769-19.356 0-6.625 5.375-12 12-12s12 5.375 12 12c0 4.837-1.688 6.188-10.769 19.356-0.594 0.863-1.869 0.863-2.469 0zM12 17c2.762 0 5-2.238 5-5s-2.238-5-5-5-5 2.238-5 5 2.238 5 5 5z"></path>
        </symbol>
        <symbol id="icon-menu" viewBox="0 0 46 32">
            <path d="M45.714 29.726c0 1.257-1.019 2.274-2.274 2.274h-18.309c-0.603 0-1.182-0.24-1.608-0.666s-0.666-1.005-0.666-1.608c0-0.603 0.24-1.182 0.666-1.608s1.005-0.666 1.608-0.666h18.309c1.257 0 2.274 1.017 2.274 2.274zM45.714 16c0 1.257-1.019 2.274-2.274 2.274h-41.166c-0.603 0-1.182-0.24-1.608-0.666s-0.666-1.005-0.666-1.608c0-0.603 0.24-1.182 0.666-1.608s1.005-0.666 1.608-0.666h41.166c1.257 0 2.274 1.019 2.274 2.274zM43.44 4.549c0.603 0 1.182-0.24 1.608-0.666s0.666-1.005 0.666-1.608c0-0.603-0.24-1.182-0.666-1.608s-1.005-0.666-1.608-0.666h-27.451c-0.299 0-0.594 0.059-0.87 0.173s-0.527 0.282-0.738 0.493c-0.211 0.211-0.379 0.462-0.493 0.738s-0.173 0.572-0.173 0.87c0 0.299 0.059 0.594 0.173 0.87s0.282 0.527 0.493 0.738c0.211 0.211 0.462 0.379 0.738 0.493s0.572 0.173 0.87 0.173h27.451z"></path>
        </symbol>
        <symbol id="icon-phone" viewBox="0 0 32 32">
            <path d="M30.667 21.639l-8.588-0.994-4.107 4.107c-4.626-2.353-8.386-6.113-10.739-10.739l4.123-4.123-0.994-8.556h-8.979c-0.945 16.59 12.695 30.23 29.284 29.284v-8.979z"></path>
        </symbol>
        <symbol id="icon-phone-alt" viewBox="0 0 32 32">
            <path d="M31.087 22.613l-7-3c-0.173-0.076-0.376-0.12-0.588-0.12-0.467 0-0.885 0.214-1.16 0.549l-0.002 0.003-3.1 3.788c-4.885-2.34-8.735-6.19-11.015-10.936l-0.060-0.139 3.787-3.1c0.338-0.276 0.553-0.693 0.553-1.16 0-0.213-0.045-0.416-0.125-0.6l0.004 0.010-3-7c-0.24-0.538-0.77-0.906-1.386-0.906-0.118 0-0.233 0.014-0.343 0.039l0.010-0.002-6.5 1.5c-0.671 0.159-1.163 0.753-1.163 1.462 0 0 0 0.001 0 0.001v-0c0 16.031 12.994 29 29 29 0 0 0.001 0 0.001 0 0.709 0 1.303-0.492 1.459-1.152l0.002-0.010 1.5-6.5c0.023-0.1 0.037-0.215 0.037-0.333 0-0.619-0.371-1.152-0.902-1.388l-0.010-0.004z"></path>
        </symbol>
        <symbol id="icon-user" viewBox="0 0 32 32">
            <path stroke-linejoin="round" stroke-linecap="round" stroke-miterlimit="4" stroke-width="2.6667"
                  d="M26.667 28v-2.667c0-1.415-0.562-2.771-1.562-3.771s-2.357-1.562-3.771-1.562h-10.667c-1.415 0-2.771 0.562-3.771 1.562s-1.562 2.357-1.562 3.771v2.667"></path>
            <path stroke-linejoin="round" stroke-linecap="round" stroke-miterlimit="4" stroke-width="2.6667"
                  d="M16 14.667c2.945 0 5.333-2.388 5.333-5.333s-2.388-5.333-5.333-5.333c-2.946 0-5.333 2.388-5.333 5.333s2.388 5.333 5.333 5.333z"></path>
        </symbol>
        <symbol id="icon-user2" viewBox="0 0 32 32">
            <path d="M16 14.633c-1.833 0-3.402-0.653-4.709-1.96s-1.959-2.876-1.958-4.707c0.001-1.831 0.654-3.402 1.958-4.711s2.873-1.961 4.709-1.953c1.836 0.007 3.405 0.659 4.709 1.956s1.956 2.867 1.958 4.711-0.651 3.413-1.958 4.707c-1.307 1.293-2.876 1.944-4.709 1.958zM0.444 30.702v-3.658c0-0.917 0.267-1.775 0.8-2.573 0.535-0.8 1.253-1.421 2.156-1.862 2.098-1.006 4.197-1.76 6.298-2.262 2.099-0.504 4.2-0.756 6.302-0.756s4.204 0.252 6.304 0.756c2.101 0.504 4.199 1.258 6.294 2.262 0.904 0.441 1.622 1.062 2.155 1.862 0.535 0.798 0.802 1.656 0.802 2.573v3.658h-31.111z"></path>
        </symbol>
        <symbol id="icon-user-clock" viewBox="0 0 40 32">
            <path d="M31 14c-4.975 0-9 4.025-9 9s4.025 9 9 9 9-4.025 9-9-4.025-9-9-9zM35 23.394c0 0.331-0.275 0.606-0.606 0.606h-3.788c-0.331 0-0.606-0.275-0.606-0.606v-4.787c0-0.331 0.275-0.606 0.606-0.606h0.788c0.331 0 0.606 0.275 0.606 0.606v3.394h2.394c0.331 0 0.606 0.275 0.606 0.606v0.788zM20 23c0-1.738 0.419-3.381 1.137-4.844-0.5-0.094-1.012-0.156-1.538-0.156h-1.044c-1.387 0.637-2.931 1-4.556 1s-3.162-0.363-4.556-1h-1.044c-4.638 0-8.4 3.762-8.4 8.4v2.6c0 1.656 1.344 3 3 3h21.694c-2.831-1.994-4.694-5.281-4.694-9zM14 16c4.419 0 8-3.581 8-8s-3.581-8-8-8-8 3.581-8 8 3.581 8 8 8z"></path>
        </symbol>
    </defs>
</svg>
