<svg width="18" height="13" viewBox="0 0 18 13" fill="none" xmlns="http://www.w3.org/2000/svg">
<path d="M2.23133 12.9167C1.80906 12.9167 1.45675 12.7755 1.17442 12.4932C0.892083 12.2109 0.750611 11.8583 0.75 11.4354V1.56471C0.75 1.14243 0.891472 0.790124 1.17442 0.507791C1.45736 0.225457 1.80936 0.0839851 2.23042 0.083374H15.7696C16.1913 0.083374 16.5433 0.224846 16.8256 0.507791C17.1079 0.790735 17.2494 1.14304 17.25 1.56471V11.4363C17.25 11.858 17.1085 12.2103 16.8256 12.4932C16.5426 12.7762 16.1906 12.9173 15.7696 12.9167H2.23133ZM9 6.60637L1.66667 1.81129V11.4363C1.66667 11.6007 1.71953 11.7357 1.82525 11.8415C1.93097 11.9472 2.06633 12 2.23133 12H15.7696C15.934 12 16.069 11.9472 16.1748 11.8415C16.2805 11.7357 16.3333 11.6004 16.3333 11.4354V1.81037L9 6.60637ZM9 5.58337L16.051 1.00004H1.949L9 5.58337ZM1.66667 1.81129V1.00004V11.4363C1.66667 11.6007 1.71953 11.7357 1.82525 11.8415C1.93097 11.9472 2.06633 12 2.23133 12H1.66667V1.81129Z" fill="#4A72FF"/>
</svg>
