<svg width="286" height="36" viewBox="0 0 286 36" fill="none" xmlns="http://www.w3.org/2000/svg">
<g clip-path="url(#clip0_74_2)">
<g clip-path="url(#clip1_74_2)">
<path d="M32.8833 17.0703C32.6142 17.106 32.3479 17.1241 32.0908 17.1241C28.7887 17.1241 26.1025 14.4376 26.1025 11.1358C26.1025 10.064 26.3901 9.01206 26.9337 8.09313L27.4718 7.18311L26.4233 7.32124C23.0742 7.76408 20.5196 10.562 20.3438 13.9067C20.3263 13.9032 20.3085 13.9025 20.2914 13.8995C20.1292 13.8717 19.9654 13.8498 19.8002 13.833C19.757 13.8285 19.7138 13.822 19.6706 13.8182C19.4687 13.8011 19.2655 13.7905 19.0605 13.7905C16.6657 13.7905 14.4586 14.9719 13.1075 16.864C12.7956 17.3007 12.5296 17.7754 12.3167 18.282C12.2965 18.282 12.2766 18.2816 12.2564 18.2816C9.45951 18.2816 7.18359 20.5575 7.18359 23.3545C7.18359 26.1514 9.45951 28.4269 12.2564 28.4269C13.3632 28.4269 14.4346 28.0633 15.3145 27.3959C16.446 28.0715 17.733 28.4269 19.0605 28.4269C20.3877 28.4269 21.6747 28.0715 22.8058 27.3959C23.6854 28.0633 24.7579 28.4269 25.8646 28.4269C28.6615 28.4269 30.9371 26.1514 30.9371 23.3545C30.9371 23.2009 30.9278 23.0477 30.9138 22.8958C30.9097 22.8516 30.9052 22.8081 30.9001 22.7646C30.885 22.6377 30.8658 22.5116 30.8415 22.3865C30.8367 22.3615 30.8336 22.3354 30.8281 22.3104C30.7986 22.1699 30.7613 22.0321 30.7201 21.8946C30.7068 21.8497 30.692 21.8055 30.6773 21.7613C30.6399 21.6479 30.5988 21.5361 30.5532 21.4257C30.5426 21.3994 30.533 21.3726 30.5217 21.3469C30.4617 21.2081 30.3952 21.0717 30.3229 20.9383C30.3133 20.9209 30.3027 20.9034 30.2931 20.8862C30.2574 20.8218 30.2225 20.757 30.1837 20.694C31.5191 20.1044 32.644 19.1101 33.3937 17.8422L33.9318 16.9318L32.8833 17.0703ZM25.8646 27.3983C24.8792 27.3983 23.928 27.036 23.186 26.3779L22.8884 26.114L22.5584 26.3354C21.5222 27.0302 20.3123 27.398 19.0609 27.398C17.8095 27.398 16.5995 27.0305 15.5627 26.3354L15.2326 26.114L14.9354 26.3779C14.1937 27.036 13.2425 27.3983 12.2571 27.3983C10.0271 27.3983 8.21255 25.5841 8.21255 23.3541C8.21255 21.1241 10.0271 19.3096 12.2571 19.3096C12.3788 19.3096 12.4988 19.3174 12.618 19.3281L13.0119 19.3617L13.1455 18.9894C14.0398 16.4952 16.4172 14.8187 19.0612 14.8187C19.212 14.8187 19.3615 14.8259 19.5106 14.8369C19.5832 14.8424 19.6555 14.851 19.7282 14.8588C19.8009 14.8667 19.8732 14.8743 19.9448 14.8845C20.0364 14.8979 20.1272 14.9144 20.218 14.9315C20.2701 14.9411 20.3219 14.9514 20.3733 14.9624C20.4682 14.9829 20.5635 15.0059 20.6578 15.0309C22.6245 15.5522 24.2674 17.0114 24.9765 18.9894L25.1102 19.3617L25.504 19.3281C25.6237 19.3178 25.7433 19.3096 25.8656 19.3096C27.2579 19.3096 28.4884 20.017 29.2161 21.0916C29.2206 21.0981 29.224 21.1046 29.2281 21.1114C29.2912 21.2054 29.3498 21.3027 29.405 21.4021C29.4249 21.4377 29.442 21.4744 29.4605 21.5104C29.4972 21.5814 29.5328 21.653 29.565 21.7267C29.587 21.7767 29.6072 21.8271 29.6271 21.8778C29.6514 21.9406 29.6751 22.0036 29.6967 22.0677C29.7159 22.1243 29.7333 22.1819 29.7498 22.2391C29.768 22.3018 29.7841 22.3653 29.7991 22.4293C29.8129 22.4869 29.8262 22.5445 29.8372 22.6028C29.8509 22.6761 29.8612 22.7505 29.8711 22.8249C29.878 22.8742 29.8859 22.9233 29.8907 22.973C29.9027 23.0984 29.9102 23.2256 29.9102 23.3541C29.9088 25.5841 28.0946 27.3983 25.8646 27.3983Z" fill="#4A72FF"/>
<path d="M48.1313 25.0875V11.6849H54.2582C56.2686 11.6849 57.6089 13.0251 57.6089 14.8441V21.9283C57.6089 23.7472 56.2686 25.0875 54.2582 25.0875H48.1313ZM49.5673 12.9294V23.8429H54.2582C55.3113 23.8429 56.1729 22.9813 56.1729 21.9283V14.8441C56.1729 13.791 55.3113 12.9294 54.2582 12.9294H49.5673ZM62.4913 25.0875H61.0553V11.6849H62.4913V25.0875ZM75.2237 25.0875H69.2883C67.2779 25.0875 65.9376 23.7472 65.9376 21.9283V14.8441C65.9376 13.0251 67.2779 11.6849 69.2883 11.6849H74.8408V12.5465L74.4579 12.9294H69.2883C68.2352 12.9294 67.3736 13.791 67.3736 14.8441V21.9283C67.3736 22.9813 68.2352 23.8429 69.2883 23.8429H73.7877V17.8118H75.2237V25.0875ZM80.1061 25.0875H78.6701V11.6849H80.1061V25.0875ZM87.8604 12.9294V25.0875H86.4244V12.9294H82.2122V11.6849H92.0727V12.5465L91.6897 12.9294H87.8604ZM95.1361 21.6411L93.9873 25.0875H92.5513V24.5131L97.2422 11.6849H98.8697L103.561 24.5131V25.0875H102.125L100.976 21.6411H95.1361ZM100.497 20.3966L98.1038 13.4081H98.0081L95.6148 20.3966H100.497ZM105.762 11.6849H107.198V23.8429H114.378V25.0875H105.762V11.6849ZM128.26 23.2685H126.824L122.899 13.8867H122.803L121.463 25.0875H120.027V24.5131L121.75 11.6849H123.473L127.494 21.3539H127.59L131.61 11.6849H133.333L135.057 24.5131V25.0875H133.621L132.28 13.8867H132.185L128.26 23.2685ZM139.077 21.6411L137.929 25.0875H136.493V24.5131L141.184 11.6849H142.811L147.502 24.5131V25.0875H146.066L144.917 21.6411H139.077ZM144.438 20.3966L142.045 13.4081H141.949L139.556 20.3966H144.438ZM151.14 25.0875H149.704V11.6849H155.639C157.65 11.6849 158.99 13.0251 158.99 14.8441V16.663C158.99 19.3435 156.405 19.7264 156.405 19.7264L159.373 24.5131V25.0875H157.937L154.969 19.8222H151.14V25.0875ZM155.639 12.9294H151.14V18.5776H155.639C156.692 18.5776 157.554 17.716 157.554 16.663V14.8441C157.554 13.791 156.692 12.9294 155.639 12.9294ZM163.681 11.6849V17.6203H166.84L170.095 11.6849H171.531V12.2593L167.989 18.1947L171.722 24.5131V25.0875H170.286L166.84 18.8648H163.681V25.0875H162.245V11.6849H163.681ZM174.211 25.0875V11.6849H182.923V12.5465L182.54 12.9294H175.647V17.6203H181.104V18.8648H175.647V23.8429H182.923V25.0875H174.211ZM185.412 25.0875V11.6849H191.539C193.549 11.6849 194.89 13.0251 194.89 14.8441V21.9283C194.89 23.7472 193.549 25.0875 191.539 25.0875H185.412ZM186.848 12.9294V23.8429H191.539C192.592 23.8429 193.454 22.9813 193.454 21.9283V14.8441C193.454 13.791 192.592 12.9294 191.539 12.9294H186.848ZM197.474 15.4184V14.8441C197.474 13.0251 198.815 11.6849 200.825 11.6849H206.09V12.5465L205.707 12.9294H200.825C199.772 12.9294 198.91 13.791 198.91 14.8441V15.4184C198.91 16.4715 199.485 17.0268 200.442 17.2374L203.984 18.0032C205.325 18.2904 206.378 19.3435 206.378 21.0667V21.9283C206.378 23.7472 205.037 25.0875 203.027 25.0875H197.283V23.8429H203.027C204.08 23.8429 204.942 22.9813 204.942 21.9283V21.0667C204.942 20.0136 204.367 19.4584 203.41 19.2478L199.868 18.4819C198.527 18.1947 197.474 17.1416 197.474 15.4184ZM210.59 25.0875H209.154V11.6849H217.866V12.5465L217.483 12.9294H210.59V18.2904H215.951V19.535H210.59V25.0875ZM229.449 14.6526V22.1197C229.449 23.9387 228.109 25.2789 226.099 25.2789H222.748C220.737 25.2789 219.397 23.9387 219.397 22.1197V14.6526C219.397 12.8337 220.737 11.4934 222.748 11.4934H226.099C228.109 11.4934 229.449 12.8337 229.449 14.6526ZM220.833 22.1197C220.833 22.7899 221.12 23.1728 221.12 23.1728L226.769 12.8337C226.769 12.8337 226.386 12.7379 226.099 12.7379H222.748C221.695 12.7379 220.833 13.5995 220.833 14.6526V22.1197ZM228.013 14.6526C228.013 13.9825 227.726 13.6953 227.726 13.6953L222.078 23.9387C222.078 23.9387 222.365 24.0344 222.748 24.0344H226.099C227.152 24.0344 228.013 23.1728 228.013 22.1197V14.6526ZM234.332 25.0875H232.896V11.6849H238.831C240.841 11.6849 242.182 13.0251 242.182 14.8441V16.663C242.182 19.3435 239.597 19.7264 239.597 19.7264L242.565 24.5131V25.0875H241.129L238.161 19.8222H234.332V25.0875ZM238.831 12.9294H234.332V18.5776H238.831C239.884 18.5776 240.746 17.716 240.746 16.663V14.8441C240.746 13.791 239.884 12.9294 238.831 12.9294ZM246.873 25.0875H245.437V11.6849H246.873V25.0875ZM258.552 25.0875L252.042 14.0782H251.946L252.138 16.5672V25.0875H250.702V11.6849H252.234L258.743 22.6941H258.839L258.648 20.2051V11.6849H260.084V25.0875H258.552ZM272.816 25.0875H266.881C264.87 25.0875 263.53 23.7472 263.53 21.9283V14.8441C263.53 13.0251 264.87 11.6849 266.881 11.6849H272.433V12.5465L272.05 12.9294H266.881C265.828 12.9294 264.966 13.791 264.966 14.8441V21.9283C264.966 22.9813 265.828 23.8429 266.881 23.8429H271.38V17.8118H272.816V25.0875Z" fill="#4A72FF"/>
</g>
</g>
<defs>
<clipPath id="clip0_74_2">
<rect width="280" height="35.61" fill="white"/>
</clipPath>
<clipPath id="clip1_74_2">
<rect width="280" height="35.6114" fill="white" transform="translate(0 -0.000732422)"/>
</clipPath>
</defs>
</svg>
