<svg xmlns="http://www.w3.org/2000/svg" aria-hidden="true" overflow="hidden" style="position:absolute;width:0;height:0">
    <defs>
        <symbol id="icon-close" viewBox="0 0 32 32">
            <path d="M4.94 4.020l-0.92 0.92 11.060 11.060-11.060 11.060 0.92 0.92 11.060-11.060 11.060 11.060 0.92-0.92-11.060-11.060 11.060-11.060-0.92-0.92-11.060 11.060z"></path>
        </symbol>
        <symbol id="icon-times-circle-solid" viewBox="0 0 32 32">
            <path d="M16 0.5c-8.563 0-15.5 6.938-15.5 15.5s6.938 15.5 15.5 15.5 15.5-6.938 15.5-15.5-6.938-15.5-15.5-15.5zM23.6 20.069c0.294 0.294 0.294 0.769 0 1.063l-2.475 2.469c-0.294 0.294-0.769 0.294-1.063 0l-4.063-4.1-4.069 4.1c-0.294 0.294-0.769 0.294-1.063 0l-2.469-2.475c-0.294-0.294-0.294-0.769 0-1.063l4.1-4.063-4.1-4.069c-0.294-0.294-0.294-0.769 0-1.063l2.475-2.475c0.294-0.294 0.769-0.294 1.063 0l4.063 4.106 4.069-4.1c0.294-0.294 0.769-0.294 1.063 0l2.475 2.475c0.294 0.294 0.294 0.769 0 1.063l-4.106 4.063 4.1 4.069z"></path>
        </symbol>
        <symbol id="icon-angle-right" viewBox="0 0 16 32">
            <path d="m14.019 17.063-8.5 8.5a1.495 1.495 0 0 1-2.119 0L1.987 24.15a1.495 1.495 0 0 1 0-2.119l6.025-6.025-6.025-6.025a1.495 1.495 0 0 1 0-2.119l1.406-1.425a1.493 1.493 0 0 1 2.119 0l8.5 8.5c.594.588.594 1.538.006 2.125z"/>
        </symbol>
        <symbol id="icon-arrow-right-circle" viewBox="0 0 30 32">
            <path stroke-linecap="round" stroke-linejoin="round" stroke-width="1.524"
                  d="M15.238 28.698c7.013 0 12.698-5.685 12.698-12.698S22.251 3.302 15.238 3.302 2.54 8.987 2.54 16c0 7.013 5.685 12.698 12.698 12.698z"/>
            <path stroke-linecap="round" stroke-linejoin="round" stroke-width="1.524"
                  d="M15.238 21.079 20.317 16l-5.079-5.079M10.158 16h10.159"/>
        </symbol>
        <symbol id="icon-cart" viewBox="0 0 35 32">
            <path d="M31.533 19.272a1.458 1.458 0 0 1-1.421 1.066H12.763l.414 1.895h15.868c.888 0 1.599.888 1.362 1.776l-.296 1.421c1.125.533 1.895 1.658 1.895 2.96 0 1.836-1.54 3.316-3.316 3.316a3.31 3.31 0 0 1-3.316-3.316c0-.888.355-1.717.947-2.368H13.946c.592.651 1.007 1.48 1.007 2.368 0 1.836-1.54 3.316-3.316 3.316a3.31 3.31 0 0 1-3.316-3.316c0-1.184.651-2.25 1.658-2.842L5.775 5.18H1.689C.86 5.18.268 4.588.268 3.759v-.947c0-.77.592-1.421 1.421-1.421h6.039c.651 0 1.243.533 1.421 1.184l.533 2.605h23.21c.948 0 1.599.888 1.421 1.776L31.53 19.272z"/>
        </symbol>
        <symbol id="icon-company" viewBox="0 0 32 32">
            <path d="M30.444 29.333h-3.333V2.666h1.111a1.114 1.114 0 0 0 1.112-1.111A1.11 1.11 0 0 0 28.222.444H3.778a1.114 1.114 0 0 0-1.111 1.111 1.114 1.114 0 0 0 1.111 1.111h1.111v26.667H1.556a1.11 1.11 0 0 0-.786 1.898c.208.209.491.326.786.326h28.889a1.11 1.11 0 0 0 .786-1.898 1.109 1.109 0 0 0-.786-.326zM10.444 6h3.333a1.114 1.114 0 0 1 1.111 1.111 1.114 1.114 0 0 1-1.111 1.111h-3.333a1.114 1.114 0 0 1-1.111-1.111A1.114 1.114 0 0 1 10.444 6zm0 5.556h3.333a1.114 1.114 0 0 1 1.111 1.111 1.114 1.114 0 0 1-1.111 1.111h-3.333a1.114 1.114 0 0 1-1.111-1.111 1.114 1.114 0 0 1 1.111-1.111zm-1.111 6.666a1.114 1.114 0 0 1 1.111-1.111h3.333a1.114 1.114 0 0 1 1.111 1.111 1.114 1.114 0 0 1-1.111 1.112h-3.333a1.11 1.11 0 0 1-1.111-1.112zm10 11.111h-6.667v-5.556h6.667v5.556zm2.223-10h-3.333a1.11 1.11 0 1 1 0-2.223h3.333a1.114 1.114 0 0 1 1.112 1.111 1.11 1.11 0 0 1-1.112 1.112zm0-5.555h-3.333a1.114 1.114 0 0 1-1.111-1.111 1.114 1.114 0 0 1 1.111-1.111h3.333a1.114 1.114 0 0 1 1.112 1.111 1.11 1.11 0 0 1-1.112 1.111zm0-5.556h-3.333a1.114 1.114 0 0 1-1.111-1.111A1.114 1.114 0 0 1 18.223 6h3.333a1.114 1.114 0 0 1 1.112 1.111 1.11 1.11 0 0 1-1.112 1.111z"/>
        </symbol>
        <symbol id="icon-download" viewBox="0 0 32 32">
            <path stroke-linecap="round" stroke-linejoin="round" stroke-width="2.667"
                  d="M28 20v5.333A2.67 2.67 0 0 1 25.333 28H6.666a2.668 2.668 0 0 1-2.667-2.667V20m5.334-6.667L16 20l6.667-6.667M16 20V4"/>
        </symbol>
        <symbol id="icon-email2" viewBox="0 0 40 32">
            <path d="M36 0H4C1.8 0 .02 1.8.02 4L0 28c0 2.2 1.8 4 4 4h32c2.2 0 4-1.8 4-4V4c0-2.2-1.8-4-4-4zm0 8L20 18 4 8V4l16 10L36 4v4z"/>
        </symbol>
        <symbol id="icon-facebook" viewBox="0 0 20 32">
            <path d="m17.444 18 .887-5.794h-5.556V8.45c0-1.588.775-3.131 3.263-3.131h2.525V.394S16.275 0 14.088 0C9.513 0 6.519 2.775 6.519 7.794v4.412H1.431V18h5.088v14h6.262V18z"/>
        </symbol>
        <symbol id="icon-instagram" viewBox="0 0 28 32">
            <path d="M14.006 8.813c-3.975 0-7.181 3.206-7.181 7.181s3.206 7.181 7.181 7.181 7.181-3.206 7.181-7.181-3.206-7.181-7.181-7.181zm0 11.85c-2.569 0-4.669-2.094-4.669-4.669s2.094-4.669 4.669-4.669 4.669 2.094 4.669 4.669-2.1 4.669-4.669 4.669zm9.15-12.144c0 .931-.75 1.675-1.675 1.675a1.675 1.675 0 1 1 1.675-1.675zm4.757 1.7c-.106-2.244-.619-4.231-2.262-5.869-1.637-1.638-3.625-2.15-5.869-2.263-2.313-.131-9.244-.131-11.556 0-2.237.106-4.225.619-5.869 2.256S.207 7.968.094 10.212c-.131 2.313-.131 9.244 0 11.556.106 2.244.619 4.231 2.263 5.869s3.625 2.15 5.869 2.262c2.313.131 9.244.131 11.556 0 2.244-.106 4.231-.619 5.869-2.262 1.637-1.637 2.15-3.625 2.262-5.869.131-2.313.131-9.238 0-11.55zM24.925 24.25a4.728 4.728 0 0 1-2.663 2.663c-1.844.731-6.219.563-8.256.563s-6.419.163-8.256-.563a4.728 4.728 0 0 1-2.663-2.663c-.731-1.844-.563-6.219-.563-8.256s-.163-6.419.563-8.256A4.72 4.72 0 0 1 5.75 5.076c1.844-.731 6.219-.563 8.256-.563s6.419-.162 8.256.563a4.727 4.727 0 0 1 2.663 2.662c.731 1.844.563 6.219.563 8.256s.169 6.419-.563 8.256z"/>
        </symbol>
        <symbol id="icon-linkedin" viewBox="0 0 28 32">
            <path d="M6.269 28H.463V9.306h5.806zM3.362 6.756C1.506 6.756 0 5.219 0 3.362a3.362 3.362 0 1 1 6.724 0c0 1.856-1.506 3.394-3.362 3.394zM27.994 28H22.2v-9.1c0-2.169-.044-4.95-3.019-4.95-3.019 0-3.481 2.356-3.481 4.794V28H9.9V9.306h5.569v2.55h.081c.775-1.469 2.669-3.019 5.494-3.019 5.875 0 6.956 3.869 6.956 8.894V28z"/>
        </symbol>
        <symbol id="icon-mail" viewBox="0 0 44 32">
            <path d="M5.492 31.795c-1.039 0-1.907-.348-2.602-1.042s-1.043-1.563-1.045-2.604V3.852c0-1.039.348-1.907 1.045-2.602S4.453.207 5.489.205h33.327c1.038 0 1.904.348 2.599 1.045s1.043 1.564 1.045 2.602v24.299c0 1.038-.348 1.905-1.045 2.602s-1.563 1.044-2.599 1.042H5.491zm16.662-15.533L4.103 4.459v23.692c0 .405.13.737.39.997s.593.39 1 .39h33.325c.405 0 .737-.13.997-.39s.39-.593.39-1V4.456L22.154 16.262zm0-2.518L39.51 2.462H4.797l17.356 11.282zM4.103 4.459V2.462v25.689c0 .405.13.737.39.997s.593.39 1 .39h-1.39V4.458z"/>
        </symbol>
        <symbol id="icon-mail-alt" viewBox="0 0 32 32">
            <path d="M31.394 11.925c.244-.194.606-.012.606.294V25c0 1.656-1.344 3-3 3H3c-1.656 0-3-1.344-3-3V12.225c0-.313.356-.488.606-.294 1.4 1.088 3.256 2.469 9.631 7.1 1.319.962 3.544 2.988 5.763 2.975 2.231.019 4.5-2.05 5.769-2.975 6.375-4.631 8.225-6.019 9.625-7.106zM16 20c1.45.025 3.538-1.825 4.587-2.587 8.294-6.019 8.925-6.544 10.837-8.044.363-.281.575-.719.575-1.181V7c0-1.656-1.344-3-3-3h-26c-1.656 0-3 1.344-3 3v1.188c0 .463.212.894.575 1.181 1.912 1.494 2.544 2.025 10.838 8.044 1.05.762 3.138 2.613 4.588 2.587z"/>
        </symbol>
        <symbol id="icon-map" viewBox="0 0 24 32">
            <path d="M10.769 31.356C1.688 18.187 0 16.837 0 12 0 5.375 5.375 0 12 0s12 5.375 12 12c0 4.837-1.688 6.188-10.769 19.356a1.5 1.5 0 0 1-2.469 0zM12 17c2.762 0 5-2.238 5-5s-2.238-5-5-5-5 2.238-5 5 2.238 5 5 5z"/>
        </symbol>
        <symbol id="icon-menu" viewBox="0 0 46 32">
            <path d="M45.714 29.726A2.274 2.274 0 0 1 43.44 32H25.131a2.275 2.275 0 0 1-1.608-3.882 2.275 2.275 0 0 1 1.608-.666H43.44a2.273 2.273 0 0 1 2.274 2.274zm0-13.726a2.274 2.274 0 0 1-2.274 2.274H2.274a2.275 2.275 0 0 1-1.608-3.882 2.275 2.275 0 0 1 1.608-.666H43.44A2.274 2.274 0 0 1 45.714 16zM43.44 4.549A2.275 2.275 0 0 0 45.048.667 2.275 2.275 0 0 0 43.44.001H15.989a2.277 2.277 0 0 0-2.274 2.274 2.277 2.277 0 0 0 2.274 2.274H43.44z"/>
        </symbol>
        <symbol id="icon-phone" viewBox="0 0 32 32">
            <path d="m30.667 21.639-8.588-.994-4.107 4.107A24.52 24.52 0 0 1 7.233 14.013l4.123-4.123-.994-8.556H1.383c-.945 16.59 12.695 30.23 29.284 29.284v-8.979z"/>
        </symbol>
        <symbol id="icon-phone-alt" viewBox="0 0 32 32">
            <path d="m31.087 22.613-7-3a1.498 1.498 0 0 0-1.748.429l-.002.003-3.1 3.788c-4.885-2.34-8.735-6.19-11.015-10.936l-.06-.139 3.787-3.1a1.494 1.494 0 0 0 .428-1.76l.004.01-3-7A1.516 1.516 0 0 0 7.652.041l.01-.002-6.5 1.5A1.504 1.504 0 0 0-.001 3.001v.001c0 16.031 12.994 29 29 29H29a1.5 1.5 0 0 0 1.459-1.152l.002-.01 1.5-6.5a1.52 1.52 0 0 0-.865-1.721l-.01-.004z"/>
        </symbol>
        <symbol id="icon-user" viewBox="0 0 32 32">
            <path stroke-linecap="round" stroke-linejoin="round" stroke-width="2.667"
                  d="M26.667 28v-2.667A5.332 5.332 0 0 0 21.334 20H10.667a5.332 5.332 0 0 0-5.333 5.333V28M16 14.667A5.333 5.333 0 1 0 16 4a5.333 5.333 0 0 0 0 10.667z"/>
        </symbol>
        <symbol id="icon-user2" viewBox="0 0 32 32">
            <path d="M16 14.633c-1.833 0-3.402-.653-4.709-1.96S9.332 9.797 9.333 7.966c.001-1.831.654-3.402 1.958-4.711S14.164 1.294 16 1.302c1.836.007 3.405.659 4.709 1.956s1.956 2.867 1.958 4.711-.651 3.413-1.958 4.707c-1.307 1.293-2.876 1.944-4.709 1.958zM.444 30.702v-3.658c0-.917.267-1.775.8-2.573A5.376 5.376 0 0 1 3.4 22.609c2.098-1.006 4.197-1.76 6.298-2.262 2.099-.504 4.2-.756 6.302-.756s4.204.252 6.304.756c2.101.504 4.199 1.258 6.294 2.262a5.354 5.354 0 0 1 2.155 1.862c.535.798.802 1.656.802 2.573v3.658H.444z"/>
        </symbol>
        <symbol id="icon-user-clock" viewBox="0 0 40 32">
            <path d="M31 14c-4.975 0-9 4.025-9 9s4.025 9 9 9 9-4.025 9-9-4.025-9-9-9zm4 9.394a.61.61 0 0 1-.606.606h-3.788a.61.61 0 0 1-.606-.606v-4.787a.61.61 0 0 1 .606-.606h.788a.61.61 0 0 1 .606.606v3.394h2.394a.61.61 0 0 1 .606.606v.788zM20 23c0-1.738.419-3.381 1.137-4.844A8.303 8.303 0 0 0 19.599 18h-1.044c-1.387.637-2.931 1-4.556 1s-3.162-.363-4.556-1H8.399a8.402 8.402 0 0 0-8.4 8.4V29c0 1.656 1.344 3 3 3h21.694c-2.831-1.994-4.694-5.281-4.694-9zm-6-7c4.419 0 8-3.581 8-8s-3.581-8-8-8-8 3.581-8 8 3.581 8 8 8z"/>
        </symbol>
    </defs>
</svg>
