<svg width="36" height="36" viewBox="0 0 36 36" fill="none" xmlns="http://www.w3.org/2000/svg">
<g clip-path="url(#clip0_74_2)">
    <g clip-path="url(#clip1_74_2)">
        <path d="M32.8833 17.0703C32.6142 17.106 32.3479 17.1241 32.0908 17.1241C28.7887 17.1241 26.1025 14.4376 26.1025 11.1358C26.1025 10.064 26.3901 9.01206 26.9337 8.09313L27.4718 7.18311L26.4233 7.32124C23.0742 7.76408 20.5196 10.562 20.3438 13.9067C20.3263 13.9032 20.3085 13.9025 20.2914 13.8995C20.1292 13.8717 19.9654 13.8498 19.8002 13.833C19.757 13.8285 19.7138 13.822 19.6706 13.8182C19.4687 13.8011 19.2655 13.7905 19.0605 13.7905C16.6657 13.7905 14.4586 14.9719 13.1075 16.864C12.7956 17.3007 12.5296 17.7754 12.3167 18.282C12.2965 18.282 12.2766 18.2816 12.2564 18.2816C9.45951 18.2816 7.18359 20.5575 7.18359 23.3545C7.18359 26.1514 9.45951 28.4269 12.2564 28.4269C13.3632 28.4269 14.4346 28.0633 15.3145 27.3959C16.446 28.0715 17.733 28.4269 19.0605 28.4269C20.3877 28.4269 21.6747 28.0715 22.8058 27.3959C23.6854 28.0633 24.7579 28.4269 25.8646 28.4269C28.6615 28.4269 30.9371 26.1514 30.9371 23.3545C30.9371 23.2009 30.9278 23.0477 30.9138 22.8958C30.9097 22.8516 30.9052 22.8081 30.9001 22.7646C30.885 22.6377 30.8658 22.5116 30.8415 22.3865C30.8367 22.3615 30.8336 22.3354 30.8281 22.3104C30.7986 22.1699 30.7613 22.0321 30.7201 21.8946C30.7068 21.8497 30.692 21.8055 30.6773 21.7613C30.6399 21.6479 30.5988 21.5361 30.5532 21.4257C30.5426 21.3994 30.533 21.3726 30.5217 21.3469C30.4617 21.2081 30.3952 21.0717 30.3229 20.9383C30.3133 20.9209 30.3027 20.9034 30.2931 20.8862C30.2574 20.8218 30.2225 20.757 30.1837 20.694C31.5191 20.1044 32.644 19.1101 33.3937 17.8422L33.9318 16.9318L32.8833 17.0703ZM25.8646 27.3983C24.8792 27.3983 23.928 27.036 23.186 26.3779L22.8884 26.114L22.5584 26.3354C21.5222 27.0302 20.3123 27.398 19.0609 27.398C17.8095 27.398 16.5995 27.0305 15.5627 26.3354L15.2326 26.114L14.9354 26.3779C14.1937 27.036 13.2425 27.3983 12.2571 27.3983C10.0271 27.3983 8.21255 25.5841 8.21255 23.3541C8.21255 21.1241 10.0271 19.3096 12.2571 19.3096C12.3788 19.3096 12.4988 19.3174 12.618 19.3281L13.0119 19.3617L13.1455 18.9894C14.0398 16.4952 16.4172 14.8187 19.0612 14.8187C19.212 14.8187 19.3615 14.8259 19.5106 14.8369C19.5832 14.8424 19.6555 14.851 19.7282 14.8588C19.8009 14.8667 19.8732 14.8743 19.9448 14.8845C20.0364 14.8979 20.1272 14.9144 20.218 14.9315C20.2701 14.9411 20.3219 14.9514 20.3733 14.9624C20.4682 14.9829 20.5635 15.0059 20.6578 15.0309C22.6245 15.5522 24.2674 17.0114 24.9765 18.9894L25.1102 19.3617L25.504 19.3281C25.6237 19.3178 25.7433 19.3096 25.8656 19.3096C27.2579 19.3096 28.4884 20.017 29.2161 21.0916C29.2206 21.0981 29.224 21.1046 29.2281 21.1114C29.2912 21.2054 29.3498 21.3027 29.405 21.4021C29.4249 21.4377 29.442 21.4744 29.4605 21.5104C29.4972 21.5814 29.5328 21.653 29.565 21.7267C29.587 21.7767 29.6072 21.8271 29.6271 21.8778C29.6514 21.9406 29.6751 22.0036 29.6967 22.0677C29.7159 22.1243 29.7333 22.1819 29.7498 22.2391C29.768 22.3018 29.7841 22.3653 29.7991 22.4293C29.8129 22.4869 29.8262 22.5445 29.8372 22.6028C29.8509 22.6761 29.8612 22.7505 29.8711 22.8249C29.878 22.8742 29.8859 22.9233 29.8907 22.973C29.9027 23.0984 29.9102 23.2256 29.9102 23.3541C29.9088 25.5841 28.0946 27.3983 25.8646 27.3983Z" fill="#4A72FF"/>
    </g>
</g>
<defs>
    <clipPath id="clip0_74_2">
        <rect width="280" height="35.61" fill="white"/>
    </clipPath>
    <clipPath id="clip1_74_2">
        <rect width="280" height="35.6114" fill="white" transform="translate(0 -0.000732422)"/>
    </clipPath>
</defs>
</svg>

	