<svg width="21" height="19" viewBox="0 0 21 19" fill="none" xmlns="http://www.w3.org/2000/svg">
<path d="M18.7227 11.4429C18.6172 11.8296 18.2656 12.0757 17.8789 12.0757H7.57812L7.82422 13.2007H17.2461C17.7734 13.2007 18.1953 13.728 18.0547 14.2554L17.8789 15.0991C18.5469 15.4155 19.0039 16.0835 19.0039 16.8569C19.0039 17.9468 18.0898 18.8257 17.0352 18.8257C15.9453 18.8257 15.0664 17.9468 15.0664 16.8569C15.0664 16.3296 15.2773 15.8374 15.6289 15.4507H8.28125C8.63281 15.8374 8.87891 16.3296 8.87891 16.8569C8.87891 17.9468 7.96484 18.8257 6.91016 18.8257C5.82031 18.8257 4.94141 17.9468 4.94141 16.8569C4.94141 16.1538 5.32812 15.521 5.92578 15.1694L3.42969 3.07568H1.00391C0.511719 3.07568 0.160156 2.72412 0.160156 2.23193V1.66943C0.160156 1.2124 0.511719 0.825684 1.00391 0.825684H4.58984C4.97656 0.825684 5.32812 1.14209 5.43359 1.52881L5.75 3.07568H19.5312C20.0938 3.07568 20.4805 3.60303 20.375 4.13037L18.7227 11.4429Z" fill="white"/>
</svg>
