<svg width="18" height="18" viewBox="0 0 18 18" fill="none" xmlns="http://www.w3.org/2000/svg">
<path d="M9 8.23121C7.96917 8.23121 7.08625 7.86371 6.35125 7.12871C5.61625 6.39371 5.24917 5.51121 5.25 4.48121C5.25083 3.45121 5.61792 2.56787 6.35125 1.83121C7.08458 1.09454 7.9675 0.72829 9 0.732457C10.0325 0.736624 10.9154 1.10329 11.6488 1.83246C12.3821 2.56162 12.7492 3.44496 12.75 4.48246C12.7508 5.51996 12.3838 6.40246 11.6488 7.12996C10.9138 7.85746 10.0308 8.22371 9 8.23121ZM0.25 17.27V15.2125C0.25 14.6966 0.4 14.2141 0.7 13.765C1.00083 13.315 1.405 12.9658 1.9125 12.7175C3.0925 12.1516 4.27333 11.7275 5.455 11.445C6.63583 11.1616 7.8175 11.02 9 11.02C10.1825 11.02 11.3646 11.1616 12.5462 11.445C13.7279 11.7283 14.9079 12.1525 16.0863 12.7175C16.5946 12.9658 16.9988 13.315 17.2987 13.765C17.5996 14.2141 17.75 14.6966 17.75 15.2125V17.27H0.25Z" fill="white" fill-opacity="0.5"/>
</svg>
